<?xml version="1.0" encoding="UTF-8" standalone="no"?>
<svg
   version="1.1"
   width="14.24265in"
   height="14.050714in"
   viewBox="0 0 1025.4721 1011.6534"
   id="svg36"
   xml:space="preserve"
   xmlns:xlink="http://www.w3.org/1999/xlink"
   xmlns="http://www.w3.org/2000/svg"
   xmlns:svg="http://www.w3.org/2000/svg"><defs
     id="defs37"><linearGradient
       id="linearGradient63"><stop
         style="stop-color:#c28928;stop-opacity:1;"
         offset="0"
         id="stop64" /><stop
         style="stop-color:#c51e28;stop-opacity:1;"
         offset="1"
         id="stop65" /></linearGradient><style
       type="text/css"
       id="style1">
   <![CDATA[
    .str1 {stroke:#F2055C;stroke-width:15830;stroke-miterlimit:22.9256}
    .str0 {stroke:#F2055C;stroke-width:3958;stroke-miterlimit:22.9256}
    .str2 {stroke:#F2055C;stroke-width:11873;stroke-miterlimit:22.9256}
    .fil0 {fill:none}
   ]]>
  </style><linearGradient
       xlink:href="#linearGradient63"
       id="linearGradient65"
       x1="279.90149"
       y1="471.88696"
       x2="533.96692"
       y2="471.88696"
       gradientUnits="userSpaceOnUse" /><linearGradient
       xlink:href="#grad39"
       id="linearGradient66"
       gradientUnits="userSpaceOnUse"
       gradientTransform="scale(1.0013131,0.99868865)"
       x1="279.53445"
       y1="345.64047"
       x2="279.53445"
       y2="599.37268" /></defs><g
     id="Layer1103"
     transform="matrix(1.7301186,0,0,1.7037889,-192.91156,-2.8628717)"
     style="display:inline"><path
       d="M 316.12973,16.716264 C 461.78392,-30.8522 617.66932,40.895369 678.35072,178.27254 l -19.4321,38.29809 38.2311,19.46615 c 31.8046,146.80781 -51.9148,296.80669 -197.569,344.37507 -145.28995,47.44946 -300.7505,-23.82814 -361.7541,-160.53388 l 20.14662,-39.70634 -39.6368,-20.18193 C 87.187029,213.53407 170.83977,64.165724 316.12973,16.716264 Z"
       style="display:inline;fill:#00002f;fill-opacity:1;fill-rule:evenodd;stroke:#d61e28;stroke-width:0.712913;stroke-linecap:butt;stroke-linejoin:miter;stroke-dasharray:none;stroke-opacity:1"
       id="path6" /><g
       id="Layer1115"
       transform="translate(0.92671123,-168.68935)"><g
         id="Layer1116"
         style="display:inline"><defs
           id="defs24"><linearGradient
             id="grad37"><stop
               offset="0.0000%"
               stop-color="#f28705"
               stop-opacity="1.0000"
               id="stop21" /><stop
               offset="35.0000%"
               stop-color="#f2293a"
               stop-opacity="1.0000"
               id="stop22" /><stop
               offset="67.0000%"
               stop-color="#f2e205"
               stop-opacity="1.0000"
               id="stop23" /><stop
               offset="100.0000%"
               stop-color="#174fbf"
               stop-opacity="1.0000"
               id="stop24" /></linearGradient><linearGradient
             xlink:href="#grad37"
             id="grad38"
             x1="279.53494"
             y1="336.3598"
             x2="279.53494"
             y2="590.09167"
             gradientTransform="scale(1.0013113,0.99869042)"
             gradientUnits="userSpaceOnUse" /></defs><path
           d="m 413.8158,335.9193 4.6346,9.2691 -4.6346,-4e-4 z m -68.9984,122.5314 -2.7336,-5.4602 0.596,-1.1928 h 4e-4 l 1.0795,-2.1589 h -4e-4 l 6.2106,-12.4213 4e-4,4e-4 1.0721,-2.1446 5.6865,-11.3734 h 4e-4 l 1.0873,-2.1749 h -4e-4 l 1.6114,-3.2224 h 4e-4 l 1.084,-2.168 28.2719,-56.5451 h 11.7978 v 10.2816 l -18.9154,37.7814 -18.2047,36.3618 v 4e-4 l -3.4926,6.9754 -3.6418,7.2741 h 4e-4 l -5.8019,11.5879 z m -19.0985,60.9509 -1.4032,2.8026 -1.7268,3.4491 -7.5037,14.9877 h -4e-4 l -12.2594,24.4864 -22.9239,12.2274 19.7114,-39.4228 8.0943,-16.1887 1.6274,-3.2552 1.4603,-2.9209 4e-4,4e-4 5.965,-11.9304 5.712,-11.424 1.1456,-2.2912 1.2495,-2.4986 5.5941,-11.1882 4.2073,-8.4147 8.4312,16.8631 -3.5366,7.0646 -8.2266,16.4323 z m 107.2418,-115.4299 5e-4,-4e-4 -19.1454,-38.2402 v -6.1416 h 11.8351 l 36.7722,73.5442 1.5083,3.0166 v -4e-4 l 2.1753,4.3503 -4e-4,9e-4 1.5071,3.0141 4e-4,-8e-4 3.1538,6.3084 8.4316,16.8632 9.0296,18.0584 h -4e-4 l 1.1986,2.3976 h 8e-4 l 2.0678,4.1363 v 4e-4 l 2.9948,5.9901 v -4e-4 l 13.2604,26.5205 8e-4,0.002 1.8567,3.7137 h 4e-4 l 24.3574,48.7161 -20.148,-10.7471 -9.6519,-19.2784 -31.22,-62.3573 -1.162,-2.3212 z m 97.3452,185.295 c -48.6972,0.0304 -86.2079,0.0476 -112.4224,0.0509 l 7.2006,-14.4011 h 78.3185 z m -117.02,0.0517 -6.0685,5e-4 -7.1656,-5e-4 v -14.4019 h 13.2341 z m -17.8683,-8e-4 c -25.8743,-0.004 -62.4854,-0.0205 -109.7318,-0.0493 l 26.9065,-14.3518 h 75.6248 z m -70.5502,-101.8942 0.2768,-0.5537 c 2.1109,0.3939 4.0098,1.1255 5.8541,2.2419 l -1.6553,2.9689 z m 71.1175,-142.235 4.5968,-9.1948 v 9.1944 z"
           style="display:inline;fill:url(#grad38)"
           id="path24" /><defs
           id="defs28"><linearGradient
             id="grad39"><stop
               offset="0.0000%"
               stop-color="#f2e205"
               stop-opacity="1.0000"
               id="stop25" /><stop
               offset="35.0000%"
               stop-color="#f2293a"
               stop-opacity="1.0000"
               id="stop26" /><stop
               offset="67.0000%"
               stop-color="#f2e205"
               stop-opacity="1.0000"
               id="stop27" /><stop
               offset="100.0000%"
               stop-color="#f28705"
               stop-opacity="1.0000"
               id="stop28" /></linearGradient></defs><path
           d="m 400.0518,598.5867 -4.6342,-9.2691 4.6342,8e-4 z m -19.9624,-69.686 -4e-4,4e-4 19.9628,39.8738 v 6.1416 h -11.8347 l -23.7269,-47.453 0.145,-0.0386 -1.1001,-2.1922 -0.1437,0.0332 -11.9267,-23.8542 v -0.2329 l -2.3976,-4.7779 v 0.2152 l -3.5966,-7.1927 v -0.1898 l -2.2526,-4.4892 h -0.0867 l -0.0312,-0.0608 0.0436,-0.087 -8.4464,-16.8324 -0.0284,0.0563 -15.6613,-31.3227 -39.106,-78.212 20.1488,10.747 29.2869,58.497 z m 78.574,-54.9016 4e-4,4e-4 4.6785,-9.3451 8.4419,16.8619 -3.3707,6.7417 -3.3706,6.7418 v -4e-4 l -8.3922,16.7839 v 4e-4 l -31.5666,63.1328 h -11.7982 v -10.2816 l 13.0654,-26.0966 14.7564,-29.4738 1.2006,-2.3976 1.6291,-3.2544 z M 283.5622,345.2393 c 48.6976,-0.0304 86.2082,-0.0476 112.4227,-0.0509 l -7.201,14.4011 h -78.318 z m 117.0195,-0.0513 6.0689,-8e-4 7.1652,8e-4 v 14.4015 h -13.2341 z m 17.8687,4e-4 c 25.8747,0.004 62.4858,0.0205 109.7318,0.0493 l -26.9069,14.3518 h -75.6244 z m 115.5165,11.9628 -54.7677,109.5348 -8.4316,-16.8632 40.2746,-80.4442 z m -116.0834,232.1664 -4.5976,9.1948 v -9.194 z"
           style="display:inline;fill:url(#linearGradient66)"
           id="path28" /></g><g
         id="Layer1117"><defs
           id="defs32"><linearGradient
             id="grad41"><stop
               offset="0"
               stop-color="#f28705"
               stop-opacity="1.0000"
               id="stop29"
               style="stop-color:#c51e28;stop-opacity:1;" /><stop
               offset="0.34999999"
               stop-color="#f2293a"
               stop-opacity="1.0000"
               id="stop30"
               style="stop-color:#c51e28;stop-opacity:1;" /><stop
               offset="0.67000002"
               stop-color="#f2e205"
               stop-opacity="1.0000"
               id="stop31"
               style="stop-color:#c51e28;stop-opacity:1;" /><stop
               offset="1"
               stop-color="#174fbf"
               stop-opacity="1.0000"
               id="stop32"
               style="stop-color:#c51e28;stop-opacity:1;" /></linearGradient><linearGradient
             xlink:href="#grad41"
             id="grad42"
             x1="279.53494"
             y1="336.3598"
             x2="279.53494"
             y2="590.09167"
             gradientTransform="scale(1.0013113,0.99869042)"
             gradientUnits="userSpaceOnUse" /></defs><path
           d="m 413.8158,335.9193 4.6346,9.2691 -4.6346,-4e-4 z m -68.9984,122.5314 -2.7336,-5.4602 0.596,-1.1928 h 4e-4 l 1.0795,-2.1589 h -4e-4 l 6.2106,-12.4213 4e-4,4e-4 1.0721,-2.1446 5.6865,-11.3734 h 4e-4 l 1.0873,-2.1749 h -4e-4 l 1.6114,-3.2224 h 4e-4 l 1.084,-2.168 28.2719,-56.5451 h 11.7978 v 10.2816 l -18.9154,37.7814 -18.2047,36.3618 v 4e-4 l -3.4926,6.9754 -3.6418,7.2741 h 4e-4 l -5.8019,11.5879 z m -19.0985,60.9509 -1.4032,2.8026 -1.7268,3.4491 -7.5037,14.9877 h -4e-4 l -12.2594,24.4864 -22.9239,12.2274 19.7114,-39.4228 8.0943,-16.1887 1.6274,-3.2552 1.4603,-2.9209 4e-4,4e-4 5.965,-11.9304 5.712,-11.424 1.1456,-2.2912 1.2495,-2.4986 5.5941,-11.1882 4.2073,-8.4147 8.4312,16.8631 -3.5366,7.0646 -8.2266,16.4323 z m 107.2418,-115.4299 5e-4,-4e-4 -19.1454,-38.2402 v -6.1416 h 11.8351 l 36.7722,73.5442 1.5083,3.0166 v -4e-4 l 2.1753,4.3503 -4e-4,9e-4 1.5071,3.0141 4e-4,-8e-4 3.1538,6.3084 8.4316,16.8632 9.0296,18.0584 h -4e-4 l 1.1986,2.3976 h 8e-4 l 2.0678,4.1363 v 4e-4 l 2.9948,5.9901 v -4e-4 l 13.2604,26.5205 8e-4,0.002 1.8567,3.7137 h 4e-4 l 24.3574,48.7161 -20.148,-10.7471 -9.6519,-19.2784 -31.22,-62.3573 -1.162,-2.3212 z m 97.3452,185.295 c -48.6972,0.0304 -86.2079,0.0476 -112.4224,0.0509 l 7.2006,-14.4011 h 78.3185 z m -117.02,0.0517 -6.0685,5e-4 -7.1656,-5e-4 v -14.4019 h 13.2341 z m -17.8683,-8e-4 c -25.8743,-0.004 -62.4854,-0.0205 -109.7318,-0.0493 l 26.9065,-14.3518 h 75.6248 z m -70.5502,-101.8942 0.2768,-0.5537 c 2.1109,0.3939 4.0098,1.1255 5.8541,2.2419 l -1.6553,2.9689 z m 71.1175,-142.235 4.5968,-9.1948 v 9.1944 z"
           style="display:inline;fill:url(#grad42)"
           id="path32" /><defs
           id="defs36"><linearGradient
             id="grad43"><stop
               offset="0"
               stop-color="#f2e205"
               stop-opacity="1.0000"
               id="stop33"
               style="stop-color:#645e7c;stop-opacity:1;" /><stop
               offset="0.34999999"
               stop-color="#f2293a"
               stop-opacity="1.0000"
               id="stop34"
               style="stop-color:#c21e28;stop-opacity:1;" /><stop
               offset="0.67000002"
               stop-color="#f2e205"
               stop-opacity="1.0000"
               id="stop35"
               style="stop-color:#343142;stop-opacity:1;" /><stop
               offset="1"
               stop-color="#f28705"
               stop-opacity="1.0000"
               id="stop36"
               style="stop-color:#c21e28;stop-opacity:1;" /></linearGradient></defs><path
           d="m 400.0518,598.5867 -4.6342,-9.2691 4.6342,8e-4 z m -19.9624,-69.686 -4e-4,4e-4 19.9628,39.8738 v 6.1416 h -11.8347 l -23.7269,-47.453 0.145,-0.0386 -1.1001,-2.1922 -0.1437,0.0332 -11.9267,-23.8542 v -0.2329 l -2.3976,-4.7779 v 0.2152 l -3.5966,-7.1927 v -0.1898 l -2.2526,-4.4892 h -0.0867 l -0.0312,-0.0608 0.0436,-0.087 -8.4464,-16.8324 -0.0284,0.0563 -15.6613,-31.3227 -39.106,-78.212 20.1488,10.747 29.2869,58.497 z m 78.574,-54.9016 4e-4,4e-4 4.6785,-9.3451 8.4419,16.8619 -3.3707,6.7417 -3.3706,6.7418 v -4e-4 l -8.3922,16.7839 v 4e-4 l -31.5666,63.1328 h -11.7982 v -10.2816 l 13.0654,-26.0966 14.7564,-29.4738 1.2006,-2.3976 1.6291,-3.2544 z M 283.5622,345.2393 c 48.6976,-0.0304 86.2082,-0.0476 112.4227,-0.0509 l -7.201,14.4011 h -78.318 z m 117.0195,-0.0513 6.0689,-8e-4 7.1652,8e-4 v 14.4015 h -13.2341 z m 17.8687,4e-4 c 25.8747,0.004 62.4858,0.0205 109.7318,0.0493 l -26.9069,14.3518 h -75.6244 z m 115.5165,11.9628 -54.7677,109.5348 -8.4316,-16.8632 40.2746,-80.4442 z m -116.0834,232.1664 -4.5976,9.1948 v -9.194 z"
           style="display:inline;fill:url(#linearGradient65);fill-opacity:1;stroke-width:1.008;stroke-dasharray:none"
           id="path36" /></g></g><g
       id="Camada_x0020_1"
       transform="matrix(3.5095655e-4,1.3471508e-5,-1.2794702e-5,3.7289605e-4,144.6774,166.86454)"
       style="clip-rule:evenodd;fill-rule:evenodd;image-rendering:optimizeQuality;shape-rendering:geometricPrecision;text-rendering:geometricPrecision">
  <metadata
   id="CorelCorpID_0Corel-Layer" />
  <g
   id="Borda"
   transform="matrix(0.90720525,-1.5709672e-4,-1.5853148e-4,0.90286248,55605.201,-268851.22)">
   <g
   id="g14">
    <g
   id="g7">
     <g
   id="g2">
      <path
   class="fil0 str0"
   d="M 201630,1221450 C 73010,1076527 1979,889484 1979,695718 c 0,-40716 3145,-81032 9248,-120646 M 94879,323528 C 151442,217279 232248,123830 332893,51762"
   id="path1"
   style="fill:none;fill-opacity:1;stroke:#c31e28;stroke-opacity:1" />
      <path
   class="fil0 str0"
   d="m 1175694,1734 c 253089,139199 410333,405140 410333,693984 0,23285 -1031,46476 -3061,69510 m -68769,260045 c -30750,67204 -70974,130274 -119920,187138"
   id="path2"
   style="fill:none;fill-opacity:1;stroke:#c31e28;stroke-opacity:1" />
     </g>
     <g
   id="g4">
      <path
   class="fil0 str1"
   d="M 269394,1151685 C 155488,1023340 92583,857695 92583,686094 c 0,-56162 6729,-111469 19657,-164898 M 145599,418624 C 195028,298821 277363,193338 385643,115804"
   id="path3"
   style="fill:none;fill-opacity:1;stroke:#c31e28;stroke-opacity:1" />
      <path
   class="fil0 str1"
   d="m 1132029,71499 c 224137,123276 363392,358794 363392,614595 0,44784 -4285,89172 -12649,132603 m -26416,98195 c -28744,82488 -72861,159537 -130748,226788"
   id="path4"
   style="fill:none;fill-opacity:1;stroke:#c31e28;stroke-opacity:1" />
     </g>
     <g
   id="g6">
      <path
   class="fil0 str2"
   d="M 233743,1188389 C 112096,1051323 44916,874420 44916,691158 c 0,-47842 4586,-95099 13441,-141223 M 118395,367621 C 172164,255345 253809,156640 357891,82112"
   id="path5"
   style="fill:none;fill-opacity:1;stroke:#c31e28;stroke-opacity:1" />
      <path
   class="fil0 str2"
   d="m 1155001,34796 c 239370,131653 388088,383177 388088,656362 0,33220 -2214,66237 -6555,98849 m -49245,184848 c -30310,74070 -72522,143376 -125554,204986"
   id="path6-3"
   style="fill:none;fill-opacity:1;stroke:#c31e28;stroke-opacity:1" />
     </g>
    </g>
    <g
   id="g13">
     <g
   id="g8">
      <path
   class="fil0 str0"
   d="M 201630,1221450 C 73010,1076527 1979,889484 1979,695718 c 0,-40716 3145,-81032 9248,-120646 M 94879,323528 C 151442,217279 232248,123830 332893,51762"
   id="path7"
   style="fill:none;fill-opacity:1;stroke:#c31e28;stroke-opacity:1" />
      <path
   class="fil0 str0"
   d="m 1175694,1734 c 253089,139199 410333,405140 410333,693984 0,23285 -1031,46476 -3061,69510 m -68769,260045 c -30750,67204 -70974,130274 -119920,187138"
   id="path8"
   style="fill:none;fill-opacity:1;stroke:#c31e28;stroke-opacity:1" />
     </g>
     <g
   id="g10">
      <path
   class="fil0 str1"
   d="M 269394,1151685 C 155488,1023340 92583,857695 92583,686094 c 0,-56162 6729,-111469 19657,-164898 M 145599,418624 C 195028,298821 277363,193338 385643,115804"
   id="path9"
   style="fill:none;fill-opacity:1;stroke:#c31e28;stroke-opacity:1" />
      <path
   class="fil0 str1"
   d="m 1132029,71499 c 224137,123276 363392,358794 363392,614595 0,44784 -4285,89172 -12649,132603 m -26416,98195 c -28744,82488 -72861,159537 -130748,226788"
   id="path10"
   style="fill:none;fill-opacity:1;stroke:#c31e28;stroke-opacity:1" />
     </g>
     <g
   id="g12">
      <path
   class="fil0 str2"
   d="M 233743,1188389 C 112096,1051323 44916,874420 44916,691158 c 0,-47842 4586,-95099 13441,-141223 M 118395,367621 C 172164,255345 253809,156640 357891,82112"
   id="path11"
   style="fill:none;fill-opacity:1;stroke:#c31e28;stroke-opacity:1" />
      <path
   class="fil0 str2"
   d="m 1155001,34796 c 239370,131653 388088,383177 388088,656362 0,33220 -2214,66237 -6555,98849 m -49245,184848 c -30310,74070 -72522,143376 -125554,204986"
   id="path12"
   style="fill:none;fill-opacity:1;stroke:#c31e28;stroke-opacity:1" />
     </g>
    </g>
   </g>
  </g>
 </g><g
       id="g5"><text
         xml:space="preserve"
         style="font-style:normal;font-variant:normal;font-weight:normal;font-stretch:normal;font-size:90.0001px;font-family:'LIBRARY 3 AM';-inkscape-font-specification:'LIBRARY 3 AM, Normal';font-variant-ligatures:normal;font-variant-caps:normal;font-variant-numeric:normal;font-variant-east-asian:normal;fill:#d60902;fill-opacity:1;fill-rule:evenodd;stroke:none;stroke-width:10.7541;stroke-dasharray:none"
         x="262.29907"
         y="497.47253"
         id="text1-9"
         transform="scale(0.94585151,1.0572484)"><tspan
           id="tspan4"
           x="262.29907"
           y="497.47253">CUNHA</tspan></text><text
         xml:space="preserve"
         style="font-style:normal;font-variant:normal;font-weight:normal;font-stretch:normal;font-size:89.2632px;font-family:'LIBRARY 3 AM';-inkscape-font-specification:'LIBRARY 3 AM, Normal';font-variant-ligatures:normal;font-variant-caps:normal;font-variant-numeric:normal;font-variant-east-asian:normal;fill:#d60902;fill-opacity:1;fill-rule:evenodd;stroke:none;stroke-width:10.666;stroke-dasharray:none"
         x="331.35834"
         y="122.36697"
         id="text1-9-4"
         transform="scale(0.9381069,1.0659766)"><tspan
           id="tspan5"
           x="331.35834"
           y="122.36697"
           style="display:inline;stroke-width:10.666">SAW</tspan></text></g><rect
       style="opacity:0;fill:#d60902;fill-rule:evenodd;stroke-width:0.66055"
       id="rect2"
       width="87.750145"
       height="67.500107"
       x="199.50032"
       y="-205.50034"
       transform="matrix(0.57799507,0,0,0.58692719,297.18302,0.68986909)" /></g></svg>
